<svg width="10" height="18" viewBox="0 0 10 18" fill="none" xmlns="http://www.w3.org/2000/svg">
<path d="M8.327 0C8.6692 0.035503 8.97339 0.035503 9.31559 0.0710059C9.54373 0.0710059 9.77186 0.106509 10 0.142012C10 1.10059 10 2.02367 10 3.01775C9.92395 3.01775 9.80988 3.01775 9.73384 3.01775C9.08745 3.01775 8.44107 3.01775 7.79468 3.05325C6.9962 3.08876 6.53992 3.47929 6.50189 4.22485C6.46387 5.00592 6.50189 5.78698 6.50189 6.60355C7.60456 6.60355 8.74525 6.60355 9.88594 6.60355C9.73384 7.66864 9.58175 8.73373 9.42966 9.79882C8.44106 9.79882 7.49049 9.79882 6.50189 9.79882C6.50189 12.5325 6.50189 15.2663 6.50189 18C5.32319 18 4.14448 18 2.96578 18C2.96578 15.2663 2.96578 12.568 2.96578 9.79882C1.97718 9.79882 0.988594 9.79882 0 9.79882C0 8.73373 0 7.66864 0 6.60355C0.988594 6.60355 1.93916 6.60355 2.96578 6.60355C2.96578 6.49704 2.96578 6.46154 2.96578 6.39053C2.96578 5.53846 2.96578 4.72189 2.96578 3.86982C3.0038 2.87574 3.346 1.95266 4.10646 1.1716C4.6768 0.60355 5.39924 0.284024 6.23574 0.106509C6.46388 0.0710059 6.69201 0.035503 6.88212 0C7.3384 0 7.8327 0 8.327 0Z" fill="white"/>
</svg>
