<svg width="15" height="15" viewBox="0 0 15 15" fill="none" xmlns="http://www.w3.org/2000/svg">
<path d="M5.00061 7.5C5.00061 6.11935 6.11959 4.9998 7.5003 4.9998C8.88101 4.9998 10.0006 6.11935 10.0006 7.5C10.0006 8.88065 8.88101 10.0002 7.5003 10.0002C6.11959 10.0002 5.00061 8.88065 5.00061 7.5ZM3.64898 7.5C3.64898 9.62702 5.3732 11.3512 7.5003 11.3512C9.62741 11.3512 11.3516 9.62702 11.3516 7.5C11.3516 5.37298 9.62741 3.64883 7.5003 3.64883C5.3732 3.64883 3.64898 5.37298 3.64898 7.5ZM10.604 3.49616C10.604 3.99293 11.0069 4.39641 11.5043 4.39641C12.0011 4.39641 12.4046 3.99293 12.4046 3.49616C12.4046 2.99939 12.0017 2.59653 11.5043 2.59653C11.0069 2.59653 10.604 2.99939 10.604 3.49616ZM4.46989 13.6048C3.73864 13.5715 3.34121 13.4497 3.07706 13.3467C2.72689 13.2104 2.47728 13.0481 2.21435 12.7857C1.95202 12.5234 1.78905 12.2738 1.65334 11.9237C1.55035 11.6595 1.42857 11.2621 1.39525 10.5309C1.3589 9.74031 1.35163 9.50283 1.35163 7.5C1.35163 5.49717 1.35951 5.2603 1.39525 4.4691C1.42857 3.73788 1.55095 3.34107 1.65334 3.07633C1.78965 2.72617 1.95202 2.47658 2.21435 2.21365C2.47668 1.95133 2.72628 1.78837 3.07706 1.65267C3.34121 1.54968 3.73864 1.42791 4.46989 1.39459C5.26051 1.35824 5.498 1.35097 7.5003 1.35097C9.50321 1.35097 9.7401 1.35884 10.5313 1.39459C11.2626 1.42791 11.6594 1.55028 11.9241 1.65267C12.2743 1.78837 12.5239 1.95133 12.7869 2.21365C13.0492 2.47597 13.2116 2.72617 13.3479 3.07633C13.4509 3.34047 13.5726 3.73788 13.606 4.4691C13.6423 5.2603 13.6496 5.49717 13.6496 7.5C13.6496 9.50222 13.6423 9.7397 13.606 10.5309C13.5726 11.2621 13.4503 11.6595 13.3479 11.9237C13.2116 12.2738 13.0492 12.5234 12.7869 12.7857C12.5245 13.0481 12.2743 13.2104 11.9241 13.3467C11.66 13.4497 11.2626 13.5715 10.5313 13.6048C9.7407 13.6412 9.50321 13.6484 7.5003 13.6484C5.498 13.6484 5.26051 13.6412 4.46989 13.6048ZM4.40809 0.0454362C3.6096 0.0817851 3.06434 0.208401 2.58754 0.39378C2.09439 0.585218 1.67636 0.842084 1.25894 1.25889C0.842118 1.67569 0.585242 2.0937 0.393796 2.58744C0.208409 3.06422 0.0817884 3.60945 0.045438 4.40792C0.00848177 5.20759 0 5.46325 0 7.5C0 9.53675 0.00848177 9.79241 0.045438 10.5921C0.0817884 11.3905 0.208409 11.9358 0.393796 12.4126C0.585242 12.9057 0.841512 13.3243 1.25894 13.7411C1.67575 14.1579 2.09378 14.4142 2.58754 14.6062C3.06495 14.7916 3.6096 14.9182 4.40809 14.9546C5.20841 14.9909 5.46347 15 7.5003 15C9.53774 15 9.7928 14.9915 10.5925 14.9546C11.391 14.9182 11.9363 14.7916 12.4131 14.6062C12.9062 14.4142 13.3242 14.1579 13.7417 13.7411C14.1585 13.3243 14.4148 12.9057 14.6068 12.4126C14.7922 11.9358 14.9194 11.3905 14.9552 10.5921C14.9915 9.7918 15 9.53675 15 7.5C15 5.46325 14.9915 5.20759 14.9552 4.40792C14.9188 3.60945 14.7922 3.06422 14.6068 2.58744C14.4148 2.09431 14.1585 1.67629 13.7417 1.25889C13.3249 0.842084 12.9062 0.585218 12.4137 0.39378C11.9363 0.208401 11.391 0.0811793 10.5931 0.0454362C9.79341 0.00908724 9.53774 0 7.50091 0C5.46347 0 5.20841 0.00848142 4.40809 0.0454362Z" fill="white"/>
</svg>
