<svg width="42" height="28" viewBox="0 0 42 28" fill="none" xmlns="http://www.w3.org/2000/svg">
<path fill-rule="evenodd" clip-rule="evenodd" d="M6.53673 3.8222L7.39773 1.9111L8.25873 0H21H33.7413L34.6023 1.9111L35.4633 3.8222H38.7316H42V5.7333V7.64441H37.5385H33.0769L32.2159 5.7333L31.3549 3.8222H21H10.6451L9.78409 5.7333L8.92309 7.64441H4.46154H0V5.7333V3.8222H3.26836H6.53673ZM0 15.2434V13.3548V11.4666H4.26348C8.10743 11.4666 8.55655 11.5607 8.82955 12.4222C9.12164 13.3438 9.55166 13.3777 21 13.3777C32.4483 13.3777 32.8784 13.3438 33.1705 12.4222C33.4435 11.5607 33.8926 11.4666 37.7365 11.4666H42V13.3548V15.2434L39.0853 15.3853L36.1701 15.5277L34.4658 19.8277C33.5284 22.1927 32.5529 24.2681 32.2975 24.4392C32.0417 24.6107 29.6639 25.549 27.0132 26.5237C25.5582 27.0588 24.1927 27.5925 23.2191 28H18.7809C17.8073 27.5925 16.4418 27.0588 14.9868 26.5237C12.3361 25.549 9.9583 24.6107 9.70248 24.4392C9.44714 24.2681 8.47159 22.1927 7.53423 19.8277L5.82989 15.5277L2.9147 15.3853L0 15.2434Z" fill="#001C3C"/>
</svg>
